<svg width="119" height="43" viewBox="0 0 119 43" fill="none" xmlns="http://www.w3.org/2000/svg">
<path d="M0.779835 35.7112C4.58847 39.5199 10.1503 42.1194 17.8885 42.1194C28.7703 42.1194 34.0298 36.5576 34.0298 29.1821C34.0298 20.2349 25.5662 18.2399 18.9162 16.7285C14.2612 15.6403 10.8757 14.7939 10.8757 12.0735C10.8757 9.65531 12.9312 7.96258 16.8003 7.96258C20.7298 7.96258 25.0826 9.35304 28.3471 12.3758L33.123 6.08849C29.133 2.40077 23.813 0.46622 17.4048 0.46622C7.91347 0.46622 2.10983 5.90713 2.10983 12.6176C2.10983 21.6253 10.5735 23.4389 17.163 24.9503C21.818 26.0385 25.3244 27.0662 25.3244 30.089C25.3244 32.3862 23.0271 34.623 18.3117 34.623C12.7498 34.623 8.33665 32.1444 5.49529 29.1821L0.779835 35.7112ZM59.115 41.394H64.9186L51.9209 25.434L64.8582 12.1944H59.115L43.7596 27.7312V1.07076H39.2255V41.394H43.7596V33.0512L48.5959 28.2753L59.115 41.394ZM71.3876 7.29759C73.0803 7.29759 74.4708 5.90713 74.4708 4.2144C74.4708 2.52168 73.0803 1.19168 71.3876 1.19168C69.7553 1.19168 68.3649 2.52168 68.3649 4.2144C68.3649 5.90713 69.7553 7.29759 71.3876 7.29759ZM69.1508 41.394H73.6849V12.1944H69.1508V41.394ZM81.0569 41.394H96.9564C109.591 41.394 118.357 33.414 118.357 21.2626C118.357 9.11122 109.591 1.07076 96.9564 1.07076H81.0569V41.394ZM89.6414 33.8371V8.62758H96.9564C105.239 8.62758 109.591 14.1289 109.591 21.2626C109.591 28.094 104.936 33.8371 96.9564 33.8371H89.6414Z" fill="black"/>
</svg>
